<svg width="232" height="70" viewBox="0 0 232 70" fill="none" xmlns="http://www.w3.org/2000/svg">
<path d="M174.406 0.888301H155.975C155.975 6.14241 153.888 11.1813 150.173 14.8965C146.458 18.6118 141.419 20.6989 136.165 20.6989H134.295V1.37801C131.99 1.58807 129.791 2.44265 127.948 3.84399C126.106 5.24534 124.695 7.13688 123.878 9.30227C121.391 7.90203 118.585 7.16641 115.731 7.16641C112.877 7.16641 110.071 7.90203 107.584 9.30227C106.763 7.13051 105.346 5.23465 103.495 3.83279C101.644 2.43094 99.4352 1.58004 97.1222 1.37801V20.6989H95.2525C92.6531 20.699 90.079 20.1862 87.678 19.1901C85.2769 18.194 83.096 16.734 81.26 14.8939C79.424 13.0537 77.9689 10.8694 76.9781 8.46615C75.9874 6.06287 75.4806 3.48777 75.4864 0.888301H57.0558C42.2904 0.881742 28.1036 6.62912 17.5062 16.9107C6.90883 27.1922 0.734985 41.1987 0.294922 55.9574C0.296655 56.3579 0.440416 56.7448 0.700597 57.0492C0.960778 57.3536 1.32057 57.5559 1.71587 57.62C2.11118 57.6841 2.51634 57.6059 2.8594 57.3993C3.20245 57.1927 3.46117 56.8711 3.58937 56.4917C4.52454 53.4048 6.42675 50.7001 9.01572 48.7764C11.6047 46.8527 14.7433 45.8119 17.9687 45.8073H18.7701C22.0277 45.8064 25.197 46.8659 27.7992 48.8256C30.4014 50.7853 32.295 53.5387 33.194 56.6697C33.2812 56.9674 33.4632 57.2284 33.7123 57.4132C33.9614 57.598 34.2639 57.6965 34.5741 57.6937C34.8917 57.7064 35.2046 57.6126 35.4627 57.427C35.7209 57.2415 35.9095 56.9749 35.9987 56.6697C36.8848 53.5568 38.7566 50.8153 41.3333 48.8567C43.91 46.8981 47.0525 45.8281 50.289 45.8073H51.1349C54.3925 45.8064 57.5617 46.8659 60.1639 48.8256C62.7661 50.7853 64.6598 53.5387 65.5588 56.6697C65.646 56.9674 65.828 57.2284 66.0771 57.4132C66.3262 57.598 66.6287 57.6965 66.9388 57.6937C67.2565 57.7064 67.5693 57.6126 67.8275 57.427C68.0856 57.2415 68.2743 56.9749 68.3634 56.6697C69.2538 53.5422 71.139 50.7901 73.7337 48.83C76.3283 46.87 79.4911 45.8088 82.7429 45.8073H83.5888C87.5677 45.8073 91.3836 47.3879 94.1972 50.2015C97.0107 53.015 98.5914 56.831 98.5914 60.8099V68.0664C98.5914 68.2301 98.6236 68.3922 98.6862 68.5434C98.7489 68.6947 98.8407 68.8321 98.9565 68.9478C99.0722 69.0636 99.2097 69.1554 99.3609 69.218C99.5122 69.2807 99.6742 69.3129 99.8379 69.3129C100.102 69.3175 100.361 69.238 100.577 69.086C100.793 68.934 100.955 68.7172 101.04 68.4671C102.044 65.5087 103.949 62.939 106.488 61.1186C109.027 59.2982 112.073 58.3185 115.197 58.3169H116.043C119.206 58.2647 122.304 59.2199 124.889 61.0445C127.474 62.8692 129.412 65.4686 130.422 68.4671C130.513 68.7136 130.676 68.9266 130.891 69.0778C131.106 69.2289 131.361 69.3109 131.624 69.3129C131.791 69.3189 131.958 69.2911 132.115 69.2311C132.271 69.1712 132.414 69.0803 132.534 68.964C132.655 68.8476 132.751 68.7082 132.816 68.5539C132.881 68.3997 132.915 68.2339 132.915 68.0664V60.8099C132.909 58.8419 133.292 56.892 134.041 55.072C134.79 53.2521 135.891 51.5978 137.28 50.2041C138.67 48.8104 140.321 47.7046 142.139 46.9501C143.956 46.1956 145.905 45.8073 147.873 45.8073H148.719C151.977 45.8064 155.146 46.8659 157.748 48.8256C160.35 50.7853 162.244 53.5387 163.143 56.6697C163.23 56.9674 163.412 57.2284 163.661 57.4132C163.91 57.598 164.213 57.6965 164.523 57.6937C164.841 57.7064 165.154 57.6126 165.412 57.427C165.67 57.2415 165.858 56.9749 165.948 56.6697C166.838 53.5422 168.723 50.7901 171.318 48.83C173.913 46.87 177.075 45.8088 180.327 45.8073H181.173C184.43 45.8064 187.6 46.8659 190.202 48.8256C192.804 50.7853 194.698 53.5387 195.597 56.6697C195.684 56.9674 195.866 57.2284 196.115 57.4132C196.364 57.598 196.667 57.6965 196.977 57.6937C197.295 57.7064 197.607 57.6126 197.865 57.427C198.124 57.2415 198.312 56.9749 198.401 56.6697C199.292 53.5422 201.177 50.7901 203.772 48.83C206.366 46.87 209.529 45.8088 212.781 45.8073H213.627C216.85 45.8189 219.986 46.8625 222.573 48.7851C225.161 50.7078 227.065 53.4085 228.006 56.4917C228.104 56.8403 228.314 57.147 228.604 57.3643C228.893 57.5816 229.247 57.6973 229.609 57.6937C229.835 57.6937 230.058 57.6485 230.267 57.5608C230.475 57.473 230.663 57.3444 230.821 57.1825C230.979 57.0207 231.102 56.8289 231.185 56.6185C231.267 56.4081 231.306 56.1833 231.3 55.9574C230.849 41.1793 224.653 27.1595 214.029 16.8767C203.405 6.59386 189.191 0.858221 174.406 0.888301Z" fill="#393136"/>
</svg>
