<svg width="100" height="175" viewBox="0 0 100 175" fill="none" xmlns="http://www.w3.org/2000/svg">
<path opacity="0.55" d="M50 158.925C66.2925 158.925 79.5 156.799 79.5 154.175C79.5 151.552 66.2925 149.425 50 149.425C33.7075 149.425 20.5 151.552 20.5 154.175C20.5 156.799 33.7075 158.925 50 158.925Z" fill="#221C58"/>
<path d="M55.5 97.25H44.5C34.55 97.25 26.5 89.15 26.5 79.2V52.25H73.5V79.2C73.5 89.15 65.45 97.25 55.5 97.25Z" fill="#5EA652"/>
<path d="M37.625 79.85V52.25H26.5V79.2C26.5 89.15 34.55 97.25 44.5 97.25H51.05C43.325 95.225 37.625 88.2 37.625 79.85Z" fill="#4B9B56"/>
<path d="M55.5 97.25H44.5C34.55 97.25 26.5 89.15 26.5 79.2V52.25H73.5V79.2C73.5 89.15 65.45 97.25 55.5 97.25Z" stroke="#041D31" stroke-width="1.5" stroke-miterlimit="10" stroke-linecap="round" stroke-linejoin="round"/>
<path d="M70.3501 35.45C56.9501 32.5 43.0501 32.5 29.6251 35.45C27.8001 35.85 26.4751 37.4751 26.4751 39.3501V52.2C41.9001 56.15 58.0501 56.15 73.4751 52.2V39.3501C73.5001 37.5001 72.2001 35.875 70.3501 35.45Z" fill="#5EA652"/>
<path d="M70.35 35.4499C69.9 35.3499 69.45 35.2499 69 35.1499V53.2499C70.5 52.9499 72 52.5999 73.5 52.1999V39.3499C73.5 37.4999 72.2 35.8749 70.35 35.4499Z" fill="#70BA61"/>
<path d="M37.625 40.65C37.625 38.125 38.375 35.775 39.675 33.8C36.3 34.175 32.95 34.725 29.65 35.45C27.825 35.85 26.5 37.475 26.5 39.35V52.2C30.175 53.15 33.9 53.85 37.625 54.35V40.65Z" fill="#4B9B56"/>
<path d="M75.5 76.5H73.5V63H75.5C77.15 63 78.5 64.425 78.5 66.075V73.575C78.5 75.225 77.15 76.5 75.5 76.5Z" fill="#4B9B56"/>
<path d="M75.5 76.5H73.5V63H75.5C77.15 63 78.5 64.425 78.5 66.075V73.575C78.5 75.225 77.15 76.5 75.5 76.5Z" stroke="#041D31" stroke-width="1.5" stroke-miterlimit="10" stroke-linecap="round" stroke-linejoin="round"/>
<path d="M24.5 76.5H26.5V63H24.5C22.85 63 21.5 64.425 21.5 66.075V73.575C21.5 75.225 22.85 76.5 24.5 76.5Z" fill="#44934C"/>
<path d="M24.5 76.5H26.5V63H24.5C22.85 63 21.5 64.425 21.5 66.075V73.575C21.5 75.225 22.85 76.5 24.5 76.5Z" stroke="#041D31" stroke-width="1.5" stroke-miterlimit="10" stroke-linecap="round" stroke-linejoin="round"/>
<path d="M48.425 89.825C48.775 87 51.35 84.975 54.175 85.325C54.875 85.4 55.55 85.65 56.125 85.975" stroke="#041D31" stroke-width="1.5" stroke-miterlimit="10" stroke-linecap="round" stroke-linejoin="round"/>
<path d="M35.75 127.825V150.325H49.25V138.5C49.25 137.8 49.825 137.25 50.5 137.25C51.2 137.25 51.75 137.8 51.75 138.5V150.325H65.25V127.825H35.75Z" fill="#2B323A"/>
<path opacity="0.8" d="M54.125 150.325H51.75V137.25H52.1C53.225 137.25 54.125 138.15 54.125 139.275V150.325Z" fill="#252C33"/>
<g opacity="0.8">
<path opacity="0.8" d="M38.8 127.825H35.75V150.325H38.8V127.825Z" fill="#252C33"/>
</g>
<path d="M35.75 127.825V150.325H49.25V138.5C49.25 137.8 49.825 137.25 50.5 137.25C51.2 137.25 51.75 137.8 51.75 138.5V150.325H65.25V127.825H35.75Z" stroke="#041D31" stroke-width="1.5" stroke-miterlimit="10" stroke-linecap="round" stroke-linejoin="round"/>
<path d="M69.7 137.35C72.2542 137.35 74.325 135.279 74.325 132.725C74.325 130.171 72.2542 128.1 69.7 128.1C67.1457 128.1 65.075 130.171 65.075 132.725C65.075 135.279 67.1457 137.35 69.7 137.35Z" fill="#5EA652"/>
<path d="M69.3249 133.125C69.1499 131.2 70.2 129.45 71.8 128.625C71.05 128.225 70.1749 128.05 69.2749 128.125C66.7249 128.35 64.8499 130.6 65.0749 133.15C65.2999 135.7 67.55 137.575 70.1 137.35C70.725 137.3 71.2999 137.125 71.8249 136.85C70.4499 136.125 69.4749 134.775 69.3249 133.125Z" fill="#4B9B56"/>
<path d="M69.7 137.35C72.2542 137.35 74.325 135.279 74.325 132.725C74.325 130.171 72.2542 128.1 69.7 128.1C67.1457 128.1 65.075 130.171 65.075 132.725C65.075 135.279 67.1457 137.35 69.7 137.35Z" stroke="#041D31" stroke-width="1.5" stroke-miterlimit="10" stroke-linecap="round" stroke-linejoin="round"/>
<path d="M40.8501 78.5C45.2683 78.5 48.8501 74.9183 48.8501 70.5C48.8501 66.0817 45.2683 62.5 40.8501 62.5C36.4318 62.5 32.8501 66.0817 32.8501 70.5C32.8501 74.9183 36.4318 78.5 40.8501 78.5Z" fill="white"/>
<path d="M40.8501 78.5C45.2683 78.5 48.8501 74.9183 48.8501 70.5C48.8501 66.0817 45.2683 62.5 40.8501 62.5C36.4318 62.5 32.8501 66.0817 32.8501 70.5C32.8501 74.9183 36.4318 78.5 40.8501 78.5Z" stroke="#041D31" stroke-width="1.5" stroke-miterlimit="10" stroke-linecap="round" stroke-linejoin="round"/>
<path d="M44.925 74.25C46.858 74.25 48.425 72.683 48.425 70.75C48.425 68.817 46.858 67.25 44.925 67.25C42.992 67.25 41.425 68.817 41.425 70.75C41.425 72.683 42.992 74.25 44.925 74.25Z" fill="#041D31"/>
<path d="M46.175 72C46.8653 72 47.425 71.4402 47.425 70.75C47.425 70.0598 46.8653 69.5 46.175 69.5C45.4848 69.5 44.925 70.0598 44.925 70.75C44.925 71.4402 45.4848 72 46.175 72Z" fill="white"/>
<path d="M49.25 150.325H35.75V152.325C35.75 153.15 36.425 153.825 37.25 153.825H47.75C48.575 153.825 49.25 153.15 49.25 152.325V150.325Z" fill="#534741"/>
<path d="M38.8 152.325V150.325H35.75V152.325C35.75 153.15 36.425 153.825 37.25 153.825H40.3C39.475 153.825 38.8 153.15 38.8 152.325Z" fill="#4C3E38"/>
<path d="M53.25 153.825H63.75C64.575 153.825 65.25 153.15 65.25 152.325V150.325H51.75V152.325C51.75 153.15 52.425 153.825 53.25 153.825Z" fill="#534741"/>
<path d="M54.125 152.325V150.325H51.75V152.325C51.75 153.15 52.425 153.825 53.25 153.825H55.625C54.8 153.825 54.125 153.15 54.125 152.325Z" fill="#4C3E38"/>
<path d="M49.25 150.325H35.75V152.325C35.75 153.15 36.425 153.825 37.25 153.825H47.75C48.575 153.825 49.25 153.15 49.25 152.325V150.325Z" stroke="#041D31" stroke-width="1.5" stroke-miterlimit="10" stroke-linecap="round" stroke-linejoin="round"/>
<path d="M53.25 153.825H63.75C64.575 153.825 65.25 153.15 65.25 152.325V150.325H51.75V152.325C51.75 153.15 52.425 153.825 53.25 153.825Z" stroke="#041D31" stroke-width="1.5" stroke-miterlimit="10" stroke-linecap="round" stroke-linejoin="round"/>
<path d="M31.35 137.8C33.932 137.8 36.025 135.707 36.025 133.125C36.025 130.543 33.932 128.45 31.35 128.45C28.768 128.45 26.675 130.543 26.675 133.125C26.675 135.707 28.768 137.8 31.35 137.8Z" fill="#5EA652"/>
<path d="M30.3001 132.725C30.4501 130.925 31.6001 129.475 33.1501 128.825C32.7251 128.65 32.2501 128.525 31.7501 128.475C29.1751 128.25 26.9001 130.15 26.6751 132.725C26.4501 135.3 28.3501 137.575 30.9251 137.8C31.7001 137.875 32.4751 137.725 33.1501 137.45C31.3251 136.675 30.1251 134.8 30.3001 132.725Z" fill="#4B9B56"/>
<path d="M31.35 137.8C33.932 137.8 36.025 135.707 36.025 133.125C36.025 130.543 33.932 128.45 31.35 128.45C28.768 128.45 26.675 130.543 26.675 133.125C26.675 135.707 28.768 137.8 31.35 137.8Z" stroke="#041D31" stroke-width="1.5" stroke-miterlimit="10" stroke-linecap="round" stroke-linejoin="round"/>
<path d="M74.3499 132.625L72.4499 110.9C72.0999 107 68.9999 104 65.2499 103.525C65.2499 103.525 65.2499 103.525 65.2499 103.5C55.4499 102.275 45.5499 102.275 35.7499 103.5C35.7499 103.5 35.7499 103.5 35.7499 103.525C31.9749 103.975 28.8999 107.025 28.5499 110.95L26.6499 132.675L35.6249 133.45L35.8749 130.525C45.5749 131.75 55.3999 131.75 65.0999 130.525L65.3499 133.425L74.3499 132.625Z" fill="#FFAD57"/>
<path opacity="0.83" d="M72.4499 110.675C72.0999 106.75 68.9999 103.75 65.2499 103.275C65.2499 103.275 65.2499 103.275 65.2499 103.25C55.4499 102.025 45.5499 102.025 35.7499 103.25C35.7499 103.25 35.7499 103.25 35.7499 103.275C31.9749 103.725 28.8999 106.775 28.5499 110.7L26.6499 132.425L26.8999 132.45L28.5499 113.45C28.8999 109.525 31.9749 106.475 35.7499 106.025C35.7499 106.025 35.7499 106.025 35.7499 106C38.5499 105.65 41.3499 105.4 44.1749 105.25C44.6749 107.025 46.2999 108.325 48.2249 108.325H52.7749C54.6999 108.325 56.3249 107.025 56.8249 105.25C59.6249 105.4 62.4499 105.65 65.2499 106C65.2499 106 65.2499 106 65.2499 106.025C68.9999 106.5 72.0999 109.5 72.4499 113.425L74.0999 132.425L74.3499 132.4L72.4499 110.675Z" fill="#E89567"/>
<path d="M74.3499 132.625L72.4499 110.9C72.0999 107 68.9999 104 65.2499 103.525C65.2499 103.525 65.2499 103.525 65.2499 103.5C55.4499 102.275 45.5499 102.275 35.7499 103.5C35.7499 103.5 35.7499 103.5 35.7499 103.525C31.9749 103.975 28.8999 107.025 28.5499 110.95L26.6499 132.675L35.6249 133.45L35.8749 130.525C45.0499 132 55.3749 132.075 65.0999 130.525L65.3499 133.425L74.3499 132.625Z" stroke="#041D31" stroke-width="1.5" stroke-miterlimit="10" stroke-linecap="round" stroke-linejoin="round"/>
<path d="M35.625 133.45L37.325 114" stroke="#041D31" stroke-width="1.5" stroke-miterlimit="10" stroke-linecap="round" stroke-linejoin="round"/>
<path d="M65.125 130.525L63.675 114" stroke="#041D31" stroke-width="1.5" stroke-miterlimit="10" stroke-linecap="round" stroke-linejoin="round"/>
<path d="M70.8 33.5001C63.975 32.0001 57 31.2251 50 31.2251C43.025 31.2251 36.025 31.9751 29.2 33.5001C26.475 34.1001 24.5 36.5751 24.5 39.3501V43.9751L26 44.2251C27.85 44.5251 29.725 44.7751 31.575 45.0251L33.05 40.2001H35L35.275 45.4251C36.975 45.6001 38.7 45.7251 40.425 45.8251L41 40.2001L41.775 45.9251C43.95 46.0501 46.125 46.1251 48.3 46.1251L49.25 40.7001L50 46.1501L53.625 45.2751L55.175 37.8251L59.575 45.8251C61.4 45.7001 63.225 45.5751 65.05 45.3751V39.5501L66.35 39.3001L68.5 44.9751C69.6 44.8501 70.725 44.7001 71.825 44.5251C71.7 41.9001 71.5 37.0001 71.9 37.7751C72.3 38.5501 73.65 42.2001 74.35 44.1251L75.475 43.9501V39.3251C75.5 36.5751 73.525 34.1001 70.8 33.5001Z" fill="#041D31"/>
<path d="M70.8 33.5001C63.975 32.0001 57 31.2251 50 31.2251C43.025 31.2251 36.025 31.9751 29.2 33.5001C26.475 34.1001 24.5 36.5751 24.5 39.3501V43.9751L26 44.2251C27.85 44.5251 29.725 44.7751 31.575 45.0251L33.05 40.2001H35L35.275 45.4251C36.975 45.6001 38.7 45.7251 40.425 45.8251L41 40.2001L41.775 45.9251C43.95 46.0501 46.125 46.1251 48.3 46.1251L49.25 40.7001L50 46.1501L53.625 45.2751L55.175 37.8251L59.575 45.8251C61.4 45.7001 63.225 45.5751 65.05 45.3751V39.5501L66.35 39.3001L68.5 44.9751C69.6 44.8501 70.725 44.7001 71.825 44.5251C71.7 41.9001 71.5 37.0001 71.9 37.7751C72.3 38.5501 73.65 42.2001 74.35 44.1251L75.475 43.9501V39.3251C75.5 36.5751 73.525 34.1001 70.8 33.5001Z" stroke="#041D31" stroke-width="0.5" stroke-miterlimit="10" stroke-linecap="round" stroke-linejoin="round"/>
<path d="M70.3501 35.9001C56.9501 33.0001 43.0501 33.0001 29.6251 35.9001C27.8001 36.3001 26.4751 37.8751 26.4751 39.7251V52.2751C41.9001 56.1501 58.0501 56.1501 73.4751 52.2751V39.7251C73.5001 37.9001 72.2001 36.3001 70.3501 35.9001Z" stroke="#041D31" stroke-width="1.5" stroke-miterlimit="10" stroke-linecap="round" stroke-linejoin="round"/>
<path d="M34.125 57.75H33.975C32.925 57.75 32.05 56.9 32.05 55.825V51.675C32.05 50.625 32.9 49.75 33.975 49.75H34.125C35.175 49.75 36.05 50.6 36.05 51.675V55.825C36.05 56.9 35.175 57.75 34.125 57.75Z" fill="#BBBE93"/>
<path d="M34.125 57.75H33.975C32.925 57.75 32.05 56.9 32.05 55.825V51.675C32.05 50.625 32.9 49.75 33.975 49.75H34.125C35.175 49.75 36.05 50.6 36.05 51.675V55.825C36.05 56.9 35.175 57.75 34.125 57.75Z" stroke="#041D31" stroke-width="1.5" stroke-miterlimit="10" stroke-linecap="round" stroke-linejoin="round"/>
<path d="M44 58.55H43.85C42.8 58.55 41.925 57.7 41.925 56.625V52.475C41.925 51.425 42.775 50.55 43.85 50.55H44C45.05 50.55 45.925 51.4 45.925 52.475V56.625C45.925 57.7 45.05 58.55 44 58.55Z" fill="#BBBE93"/>
<path d="M44 58.55H43.85C42.8 58.55 41.925 57.7 41.925 56.625V52.475C41.925 51.425 42.775 50.55 43.85 50.55H44C45.05 50.55 45.925 51.4 45.925 52.475V56.625C45.925 57.7 45.05 58.55 44 58.55Z" stroke="#041D31" stroke-width="1.5" stroke-miterlimit="10" stroke-linecap="round" stroke-linejoin="round"/>
<path d="M54.2249 58.125H54.0749C53.0249 58.125 52.1499 57.275 52.1499 56.2V52.05C52.1499 51 52.9999 50.125 54.0749 50.125H54.2249C55.2749 50.125 56.1499 50.975 56.1499 52.05V56.2C56.1499 57.275 55.2749 58.125 54.2249 58.125Z" fill="#BBBE93"/>
<path d="M54.2249 58.125H54.0749C53.0249 58.125 52.1499 57.275 52.1499 56.2V52.05C52.1499 51 52.9999 50.125 54.0749 50.125H54.2249C55.2749 50.125 56.1499 50.975 56.1499 52.05V56.2C56.1499 57.275 55.2749 58.125 54.2249 58.125Z" stroke="#041D31" stroke-width="1.5" stroke-miterlimit="10" stroke-linecap="round" stroke-linejoin="round"/>
<path d="M64.8499 58.125H64.6999C63.6499 58.125 62.7749 57.275 62.7749 56.2V52.05C62.7749 51 63.6249 50.125 64.6999 50.125H64.8499C65.8999 50.125 66.7749 50.975 66.7749 52.05V56.2C66.7749 57.275 65.8999 58.125 64.8499 58.125Z" fill="#BBBE93"/>
<path d="M64.8499 58.125H64.6999C63.6499 58.125 62.7749 57.275 62.7749 56.2V52.05C62.7749 51 63.6249 50.125 64.6999 50.125H64.8499C65.8999 50.125 66.7749 50.975 66.7749 52.05V56.2C66.7749 57.275 65.8999 58.125 64.8499 58.125Z" stroke="#041D31" stroke-width="1.5" stroke-miterlimit="10" stroke-linecap="round" stroke-linejoin="round"/>
<path d="M77.5 50.75H73.5V53.75H77.5V50.75Z" fill="#8A8D91"/>
<path d="M77.5 50.75H73.5V53.75H77.5V50.75Z" stroke="#041D31" stroke-width="1.5" stroke-miterlimit="10" stroke-linecap="round" stroke-linejoin="round"/>
<path d="M79.9 56.25H79.1C78.225 56.25 77.5 55.525 77.5 54.65V49.85C77.5 48.975 78.225 48.25 79.1 48.25H79.9C80.775 48.25 81.5 48.975 81.5 49.85V54.65C81.5 55.525 80.775 56.25 79.9 56.25Z" fill="#9DA0A5"/>
<path d="M79.9 56.25H79.1C78.225 56.25 77.5 55.525 77.5 54.65V49.85C77.5 48.975 78.225 48.25 79.1 48.25H79.9C80.775 48.25 81.5 48.975 81.5 49.85V54.65C81.5 55.525 80.775 56.25 79.9 56.25Z" fill="#9DA0A5"/>
<path d="M80.6 50.55H78.4C77.9 50.55 77.5 50.15 77.5 49.65V49.15C77.5 48.65 77.9 48.25 78.4 48.25H80.6C81.1 48.25 81.5 48.65 81.5 49.15V49.65C81.5 50.15 81.1 50.55 80.6 50.55Z" fill="#ADB3BC"/>
<path d="M79.9 56.25H79.1C78.225 56.25 77.5 55.525 77.5 54.65V49.85C77.5 48.975 78.225 48.25 79.1 48.25H79.9C80.775 48.25 81.5 48.975 81.5 49.85V54.65C81.5 55.525 80.775 56.25 79.9 56.25Z" stroke="#041D31" stroke-width="1.5" stroke-miterlimit="10" stroke-linecap="round" stroke-linejoin="round"/>
<path d="M22.5 53.75H26.5V50.75H22.5V53.75Z" fill="#686F77"/>
<path d="M22.5 53.75H26.5V50.75H22.5V53.75Z" stroke="#041D31" stroke-width="1.5" stroke-miterlimit="10" stroke-linecap="round" stroke-linejoin="round"/>
<path d="M20.1 56.25H20.9C21.775 56.25 22.5 55.525 22.5 54.65V49.85C22.5 48.975 21.775 48.25 20.9 48.25H20.1C19.225 48.25 18.5 48.975 18.5 49.85V54.65C18.5 55.525 19.225 56.25 20.1 56.25Z" fill="#727984"/>
<path d="M20.1 56.25H20.9C21.775 56.25 22.5 55.525 22.5 54.65V49.85C22.5 48.975 21.775 48.25 20.9 48.25H20.1C19.225 48.25 18.5 48.975 18.5 49.85V54.65C18.5 55.525 19.225 56.25 20.1 56.25Z" fill="#727984"/>
<path d="M19.5 50.55H21.5C22.05 50.55 22.5 50.1 22.5 49.55V49.25C22.5 48.7 22.05 48.25 21.5 48.25H19.5C18.95 48.25 18.5 48.7 18.5 49.25V49.55C18.5 50.125 18.95 50.55 19.5 50.55Z" fill="#ADB3BC"/>
<path d="M20.1 56.25H20.9C21.775 56.25 22.5 55.525 22.5 54.65V49.85C22.5 48.975 21.775 48.25 20.9 48.25H20.1C19.225 48.25 18.5 48.975 18.5 49.85V54.65C18.5 55.525 19.225 56.25 20.1 56.25Z" stroke="#041D31" stroke-width="1.5" stroke-miterlimit="10" stroke-linecap="round" stroke-linejoin="round"/>
<path d="M51.8001 106.25H49.1751C47.1501 106.25 45.4751 104.6 45.4751 102.55V97.25H55.4751V102.55C55.5001 104.6 53.8501 106.25 51.8001 106.25Z" fill="#4B9B56"/>
<path d="M48.625 102.55V97.25H45.5V102.55C45.5 104.575 47.15 106.25 49.2 106.25H51.825C51.9 106.25 52 106.25 52.075 106.225C50.15 106.1 48.625 104.525 48.625 102.55Z" fill="#44934C"/>
<path d="M51.8001 106.25H49.1751C47.1501 106.25 45.4751 104.6 45.4751 102.55V97.25H55.4751V102.55C55.5001 104.6 53.8501 106.25 51.8001 106.25Z" stroke="#041D31" stroke-width="1.5" stroke-miterlimit="10" stroke-linecap="round" stroke-linejoin="round"/>
<path opacity="0.65" d="M57.75 121.8L55 127.55" stroke="#D8865D" stroke-width="0.75" stroke-miterlimit="10" stroke-linecap="round" stroke-linejoin="round"/>
<path opacity="0.65" d="M58.5 124.125L57 128.425" stroke="#D8865D" stroke-width="0.75" stroke-miterlimit="10" stroke-linecap="round" stroke-linejoin="round"/>
<path d="M49.5 121.8C49.075 121.8 48.75 121.475 48.75 121.05V115.85C48.75 115.425 49.075 115.1 49.5 115.1H52.875C53.3 115.1 53.625 115.425 53.625 115.85C53.625 116.275 53.3 116.6 52.875 116.6H50.25V121.05C50.25 121.475 49.925 121.8 49.5 121.8Z" fill="#041D31"/>
<path d="M51.5 119.275C50.75 119.275 50.175 119.175 49.75 119C49.575 118.9 49.45 118.675 49.45 118.475C49.45 118.3 49.575 118.05 49.75 117.95C50.175 117.775 50.75 117.675 51.5 117.675C52 117.7 52.5 118.1 52.5 118.475C52.5 118.85 52 119.25 51.5 119.275Z" fill="#041D31"/>
<path d="M58.6001 76.5C62.3281 76.5 65.3501 73.478 65.3501 69.75C65.3501 66.022 62.3281 63 58.6001 63C54.8721 63 51.8501 66.022 51.8501 69.75C51.8501 73.478 54.8721 76.5 58.6001 76.5Z" fill="white"/>
<path d="M58.6001 76.5C62.3281 76.5 65.3501 73.478 65.3501 69.75C65.3501 66.022 62.3281 63 58.6001 63C54.8721 63 51.8501 66.022 51.8501 69.75C51.8501 73.478 54.8721 76.5 58.6001 76.5Z" stroke="#041D31" stroke-width="1.5" stroke-miterlimit="10" stroke-linecap="round" stroke-linejoin="round"/>
<path d="M55.125 73.5C56.6438 73.5 57.875 72.2688 57.875 70.75C57.875 69.2313 56.6438 68 55.125 68C53.6063 68 52.375 69.2313 52.375 70.75C52.375 72.2688 53.6063 73.5 55.125 73.5Z" fill="#041D31"/>
<path d="M54.25 71.5C54.7333 71.5 55.125 71.1083 55.125 70.625C55.125 70.1418 54.7333 69.75 54.25 69.75C53.7668 69.75 53.375 70.1418 53.375 70.625C53.375 71.1083 53.7668 71.5 54.25 71.5Z" fill="white"/>
</svg>
