<svg width="100" height="100" viewBox="0 0 100 100" fill="none" xmlns="http://www.w3.org/2000/svg">
<path d="M50.0601 36C57.4827 36 63.5001 33.1794 63.5001 29.7C63.5001 26.2206 57.4827 23.4 50.0601 23.4C42.6373 23.4 36.6201 26.2206 36.6201 29.7C36.6201 33.1794 42.6373 36 50.0601 36Z" fill="#D14C18"/>
<path d="M50.0601 36C57.4827 36 63.5001 33.1794 63.5001 29.7C63.5001 26.2206 57.4827 23.4 50.0601 23.4C42.6373 23.4 36.6201 26.2206 36.6201 29.7C36.6201 33.1794 42.6373 36 50.0601 36Z" stroke="#0F0021" stroke-width="1.2" stroke-miterlimit="10" stroke-linecap="round" stroke-linejoin="round"/>
<path d="M54.6399 9.90002C54.6399 9.90002 51.4199 10.82 49.4199 15.62C47.4199 20.42 49.2999 28.4 49.2999 28.4H53.1999C53.1999 28.4 51.7999 23.4 53.2999 19.84C54.1399 17.84 57.9199 15.26 57.9199 15.26C57.9199 15.26 58.9999 11.1 54.6399 9.90002Z" fill="#0F0021"/>
<path d="M50.6199 16.82C52.6199 12.02 55.8399 11.1 55.8399 11.1C56.4799 11.28 56.9799 11.52 57.3999 11.78C56.8999 11 56.0599 10.28 54.6399 9.90002C54.6399 9.90002 51.4199 10.82 49.4199 15.62C47.4199 20.42 49.2999 28.4 49.2999 28.4H50.2599C49.8199 25.98 49.0999 20.48 50.6199 16.82Z" fill="#1F0938"/>
<path d="M57.2087 15.1234C57.8637 14.7336 57.7583 13.348 56.9731 12.0286C56.1879 10.709 55.0203 9.95536 54.3653 10.3452C53.7103 10.735 53.8159 12.1206 54.6011 13.44C55.3863 14.7594 56.5537 15.5132 57.2087 15.1234Z" fill="#1A0A30"/>
<path d="M54.6399 9.90002C54.6399 9.90002 51.4199 10.82 49.4199 15.62C47.4199 20.42 49.2999 28.4 49.2999 28.4H53.1999C53.1999 28.4 51.7999 23.4 53.2999 19.84C54.1399 17.84 57.9199 15.26 57.9199 15.26C57.9199 15.26 58.9999 11.1 54.6399 9.90002Z" stroke="#0F0021" stroke-width="1.2" stroke-miterlimit="10" stroke-linecap="round" stroke-linejoin="round"/>
<path d="M87.7401 46.8399C87.0601 40.7399 85.4001 35.4199 82.0801 32.0799C78.9601 28.6799 74.3601 27.4599 69.3801 27.4399C70.6401 28.0599 71.7801 28.9599 72.7801 30.1999C75.7601 33.5599 77.2601 39.3199 77.8801 46.0599C78.4401 52.9199 78.0601 60.4199 76.0401 67.4199C73.8801 75.1999 69.72 81.8599 63.8 84.2999C75.24 83.9199 82.5801 75.5999 85.7401 66.1399C87.9401 59.7599 88.3601 53.0199 87.7401 46.8399Z" fill="#F46424"/>
<path d="M87.74 46.8399C87.06 40.7399 85.4 35.4199 82.08 32.0799C78.96 28.6799 74.36 27.4599 69.38 27.4399C69.6 27.5399 69.82 27.6599 70.02 27.7999C73.32 28.3599 76.28 29.6799 78.48 32.0799C81.82 35.3999 83.48 40.7399 84.14 46.8399C84.76 53.0199 84.34 59.7799 82.12 66.1599C79.46 74.1199 73.84 81.2799 65.32 83.5599C64.82 83.8399 64.3 84.0999 63.78 84.3199C75.22 83.9399 82.56 75.6199 85.72 66.1599C87.94 59.7599 88.36 53.0199 87.74 46.8399Z" fill="#D14C18"/>
<path d="M87.7401 46.8399C87.0601 40.7399 85.4001 35.4199 82.0801 32.0799C78.9601 28.6799 74.3601 27.4599 69.3801 27.4399C70.6401 28.0599 71.7801 28.9599 72.7801 30.1999C75.7601 33.5599 77.2601 39.3199 77.8801 46.0599C78.4401 52.9199 78.0601 60.4199 76.0401 67.4199C73.8801 75.1999 69.72 81.8599 63.8 84.2999C75.24 83.9199 82.5801 75.5999 85.7401 66.1399C87.9401 59.7599 88.3601 53.0199 87.7401 46.8399Z" stroke="#0F0021" stroke-width="1.2" stroke-miterlimit="10" stroke-linecap="round" stroke-linejoin="round"/>
<path d="M77.8801 46.06C77.2601 39.32 75.7601 33.56 72.7801 30.2C68.6201 25.02 61.7401 25.82 55.6401 28.08C58.1201 29.3 60.2601 31.54 61.4601 35.58C62.5201 38.82 63.0201 43.28 63.2201 48.14C63.4001 53.02 63.2801 58.3 62.6201 63.46C61.5401 72.16 58.5801 81.56 52.6201 84.06C64.5601 88.82 72.7001 79.46 76.0401 67.46C78.0601 60.42 78.4401 52.92 77.8801 46.06Z" fill="#ED8037"/>
<path d="M77.88 46.06C77.26 39.32 75.76 33.56 72.78 30.2C69.8 26.48 65.42 25.84 60.94 26.6C63.16 27.08 65.18 28.18 66.78 30.2C69.76 33.56 71.26 39.32 71.88 46.06C72.44 52.92 72.06 60.42 70.04 67.42C67.64 76.08 62.72 83.36 55.7 84.96C65.96 87.1 73 78.36 76.04 67.42C78.06 60.42 78.44 52.92 77.88 46.06Z" fill="#E87D34"/>
<path d="M77.8801 46.06C77.2601 39.32 75.7601 33.56 72.7801 30.2C68.6201 25.02 61.7401 25.82 55.6401 28.08C58.1201 29.3 60.2601 31.54 61.4601 35.58C62.5201 38.82 63.0201 43.28 63.2201 48.14C63.4001 53.02 63.2801 58.3 62.6201 63.46C61.5401 72.16 58.5801 81.56 52.6201 84.06C64.5601 88.82 72.7001 79.46 76.0401 67.46C78.0601 60.42 78.4401 52.92 77.8801 46.06Z" stroke="#0F0021" stroke-width="1.2" stroke-miterlimit="10" stroke-linecap="round" stroke-linejoin="round"/>
<path d="M12.0599 46.8399C12.7399 40.7399 14.3999 35.4199 17.7199 32.0799C20.8399 28.6799 25.4399 27.4599 30.4199 27.4399C29.1599 28.0599 28.0199 28.9599 27.0199 30.1999C24.0399 33.5599 22.5399 39.3199 21.9199 46.0599C21.3599 52.9199 21.7399 60.4199 23.7599 67.4199C25.9199 75.1999 30.0799 81.8599 35.9999 84.2999C24.5599 83.9199 17.2199 75.5999 14.0599 66.1399C11.8799 59.7599 11.4599 53.0199 12.0599 46.8399Z" fill="#F46424"/>
<path d="M18.4801 66.14C16.2601 59.76 15.8401 53.02 16.4601 46.82C17.1401 40.72 18.8001 35.4 22.1201 32.06C24.0601 29.94 26.5601 28.68 29.3801 28.02C29.7201 27.8 30.0601 27.6 30.4201 27.42C25.4401 27.44 20.8401 28.66 17.7201 32.06C14.3801 35.38 12.7201 40.72 12.0601 46.82C11.4401 53 11.8601 59.76 14.0801 66.14C17.2401 75.6 24.5801 83.92 36.0201 84.3C35.2001 83.96 34.4001 83.54 33.6401 83.04C26.0401 80.32 20.9801 73.58 18.4801 66.14Z" fill="#D14C18"/>
<path d="M12.0599 46.8399C12.7399 40.7399 14.3999 35.4199 17.7199 32.0799C20.8399 28.6799 25.4399 27.4599 30.4199 27.4399C29.1599 28.0599 28.0199 28.9599 27.0199 30.1999C24.0399 33.5599 22.5399 39.3199 21.9199 46.0599C21.3599 52.9199 21.7399 60.4199 23.7599 67.4199C25.9199 75.1999 30.0799 81.8599 35.9999 84.2999C24.5599 83.9199 17.2199 75.5999 14.0599 66.1399C11.8799 59.7599 11.4599 53.0199 12.0599 46.8399Z" stroke="#0F0021" stroke-width="1.2" stroke-miterlimit="10" stroke-linecap="round" stroke-linejoin="round"/>
<path d="M21.9401 46.06C22.5601 39.32 24.0601 33.56 27.0401 30.2C31.2001 25.02 38.0801 25.82 44.1801 28.08C41.7001 29.3 39.5601 31.54 38.3601 35.58C37.3001 38.82 36.8001 43.28 36.6001 48.14C36.4201 53.02 36.5401 58.3 37.2001 63.46C38.2801 72.16 41.2401 81.56 47.2001 84.06C35.2601 88.82 27.1201 79.46 23.7801 67.46C21.7601 60.42 21.3801 52.92 21.9401 46.06Z" fill="#ED8037"/>
<path d="M30.5801 67.42C28.5601 60.42 28.1801 52.92 28.7401 46.06C29.3601 39.32 30.8601 33.56 33.8401 30.2C35.3601 28.3 37.2601 27.2 39.3401 26.68C34.7001 25.8 30.1201 26.34 27.0401 30.2C24.0601 33.56 22.5601 39.32 21.9401 46.06C21.3801 52.92 21.7601 60.42 23.7801 67.42C26.8601 78.52 34.0401 87.3601 44.5401 84.88C37.7201 83.1 32.9401 75.94 30.5801 67.42Z" fill="#E87D34"/>
<path d="M21.9401 46.06C22.5601 39.32 24.0601 33.56 27.0401 30.2C31.2001 25.02 38.0801 25.82 44.1801 28.08C41.7001 29.3 39.5601 31.54 38.3601 35.58C37.3001 38.82 36.8001 43.28 36.6001 48.14C36.4201 53.02 36.5401 58.3 37.2001 63.46C38.2801 72.16 41.2401 81.56 47.2001 84.06C35.2601 88.82 27.1201 79.46 23.7801 67.46C21.7601 60.42 21.3801 52.92 21.9401 46.06Z" stroke="#0F0021" stroke-width="1.2" stroke-miterlimit="10" stroke-linecap="round" stroke-linejoin="round"/>
<path d="M38.3401 35.66C37.2801 38.94 36.7801 43.44 36.5801 48.36C36.4001 53.3 36.5201 58.64 37.1801 63.84C38.4201 73.94 42.1401 84.94 50.0001 85.3C57.8601 84.96 61.5801 73.94 62.8201 63.84C63.4801 58.64 63.6001 53.28 63.4201 48.36C63.2201 43.44 62.7201 38.94 61.6601 35.66C59.5401 28.56 54.6401 26.92 50.0001 26.74C45.3601 26.92 40.4601 28.56 38.3401 35.66Z" fill="#F7984B"/>
<path d="M38.3401 35.66C37.2801 38.94 36.7801 43.44 36.5801 48.36C36.4001 53.3 36.5201 58.64 37.1801 63.84C38.4201 73.94 42.1401 84.94 50.0001 85.3C57.8601 84.96 61.5801 73.94 62.8201 63.84C63.4801 58.64 63.6001 53.28 63.4201 48.36C63.2201 43.44 62.7201 38.94 61.6601 35.66C59.5401 28.56 54.6401 26.92 50.0001 26.74C45.3601 26.92 40.4601 28.56 38.3401 35.66Z" stroke="#0F0021" stroke-width="1.2" stroke-miterlimit="10" stroke-linecap="round" stroke-linejoin="round"/>
<path d="M56.1601 50.2C55.8601 49.66 56.0401 48.94 56.5601 48.72C58.4601 47.96 62.6001 45.88 63.5401 42.08C64.7601 37.1 69.4201 44.84 68.4601 49.86C67.7001 53.88 59.3401 55.66 56.1601 50.2Z" fill="#F46424"/>
<path d="M56.1601 48.8801C55.8601 48.3401 56.0401 47.6201 56.5601 47.4001C58.4601 46.6401 62.6001 44.5601 63.5401 40.7601C64.7601 35.7801 69.4201 43.5201 68.4601 48.5401C67.7001 52.5601 59.3401 54.3401 56.1601 48.8801Z" fill="#0F0021"/>
<path d="M56.1601 48.8801C55.8601 48.3401 56.0401 47.6201 56.5601 47.4001C58.4601 46.6401 62.6001 44.5601 63.5401 40.7601C64.7601 35.7801 69.4201 43.5201 68.4601 48.5401C67.7001 52.5601 59.3401 54.3401 56.1601 48.8801Z" stroke="#0F0021" stroke-width="1.2" stroke-miterlimit="10" stroke-linecap="round" stroke-linejoin="round"/>
<path d="M43.8001 49.8401C44.1201 49.2801 43.9201 48.4801 43.3801 48.2601C41.4201 47.4401 37.1201 45.2401 36.1601 41.1601C34.9001 35.8401 30.0801 44.1201 31.0801 49.4601C31.8601 53.7801 40.5201 55.6801 43.8001 49.8401Z" fill="#F46424"/>
<path d="M43.84 48.8801C44.14 48.3401 43.96 47.6201 43.44 47.4001C41.54 46.6401 37.4 44.5601 36.46 40.7601C35.24 35.7801 30.58 43.5201 31.54 48.5401C32.3 52.5601 40.66 54.3401 43.84 48.8801Z" fill="#0F0021"/>
<path d="M40.6201 50.56C41.5921 50.56 42.3801 49.772 42.3801 48.8C42.3801 47.828 41.5921 47.04 40.6201 47.04C39.6481 47.04 38.8601 47.828 38.8601 48.8C38.8601 49.772 39.6481 50.56 40.6201 50.56Z" fill="#F7984B"/>
<path d="M58.8201 50.56C59.7921 50.56 60.5801 49.772 60.5801 48.8C60.5801 47.828 59.7921 47.04 58.8201 47.04C57.8481 47.04 57.0601 47.828 57.0601 48.8C57.0601 49.772 57.8481 50.56 58.8201 50.56Z" fill="#F7984B"/>
<path d="M43.84 48.8801C44.14 48.3401 43.96 47.6201 43.44 47.4001C41.54 46.6401 37.4 44.5601 36.46 40.7601C35.24 35.7801 30.58 43.5201 31.54 48.5401C32.3 52.5601 40.66 54.3401 43.84 48.8801Z" stroke="#0F0021" stroke-width="1.2" stroke-miterlimit="10" stroke-linecap="round" stroke-linejoin="round"/>
<path d="M61.56 64.7L62 67L57.18 68.4199L56.78 66.3C54.66 66.76 52.4 67 50.06 67C43 67 36.72 64.7599 32.76 61.3199C33.24 65.3399 36.08 68.82 40.2 71C40.56 71.18 40.98 71.0199 41.12 70.6199L41.7 69L45.94 70.2L45.28 72.0199C45.14 72.4199 45.38 72.8399 45.78 72.9199C47.14 73.1799 48.58 73.3199 50.04 73.3199C59.1 73.3199 66.54 68.0399 67.34 61.3199C65.62 62.7999 64 63.74 61.56 64.7Z" fill="#F46424"/>
<path d="M61.3 64.0199L61.74 66.3199L57.36 67.4199L56.94 65.3C54.78 65.76 52.48 66 50.1 66C42.9 66 36.52 63.7599 32.48 60.3199C33 64.5399 36.16 68.2 40.74 70.34L41.58 68L45.9 69.2L44.96 71.7599C46.58 72.1199 48.3 72.3199 50.08 72.3199C59.3 72.3199 66.88 67.0399 67.7 60.3199C66 61.7999 63.8 63.0599 61.3 64.0199Z" fill="#0F0021"/>
</svg>
