<svg width="200" height="200" viewBox="0 0 200 200" fill="none" xmlns="http://www.w3.org/2000/svg">
<path d="M196 96H184.7C176.914 91.5405 170.446 85.102 165.95 77.337C161.454 69.572 159.091 60.7565 159.1 51.784C159.102 49.9314 159.209 48.0805 159.42 46.24L170.716 34.944C171.098 34.575 171.403 34.1336 171.612 33.6456C171.822 33.1576 171.932 32.6327 171.937 32.1016C171.942 31.5705 171.84 31.0438 171.639 30.5522C171.438 30.0606 171.141 29.614 170.766 29.2384C170.39 28.8628 169.943 28.5658 169.452 28.3647C168.96 28.1636 168.434 28.0624 167.902 28.067C167.371 28.0716 166.846 28.182 166.358 28.3916C165.87 28.6012 165.429 28.906 165.06 29.288L153.76 40.584C151.919 40.7921 150.068 40.8962 148.216 40.896C139.242 40.9083 130.425 38.5462 122.659 34.0494C114.894 29.5525 108.456 23.0811 104 15.292V4C104 2.93913 103.579 1.92172 102.828 1.17157C102.078 0.421426 101.061 0 100 0C98.9391 0 97.9217 0.421426 97.1716 1.17157C96.4214 1.92172 96 2.93913 96 4V15.292C91.5437 23.0798 85.1065 29.55 77.3416 34.0461C69.5767 38.5422 60.7606 40.904 51.788 40.892C49.9356 40.8922 48.0847 40.7881 46.244 40.58L34.944 29.284C34.1896 28.5554 33.1792 28.1522 32.1304 28.1613C31.0816 28.1704 30.0784 28.5911 29.3367 29.3327C28.5951 30.0744 28.1744 31.0776 28.1653 32.1264C28.1562 33.1752 28.5594 34.1856 29.288 34.94L40.584 46.26C40.7951 48.1005 40.902 49.9514 40.904 51.804C40.9131 60.7766 38.55 69.592 34.0542 77.357C29.5585 85.122 23.0899 91.5605 15.304 96.02H4C2.93913 96.02 1.92172 96.4414 1.17157 97.1916C0.421428 97.9417 0 98.9591 0 100.02C0 101.081 0.421428 102.098 1.17157 102.848C1.92172 103.599 2.93913 104.02 4 104.02H15.292C23.0792 108.477 29.549 114.914 34.045 122.679C38.541 130.444 40.9032 139.26 40.892 148.232C40.8901 150.083 40.7833 151.933 40.572 153.772L29.288 165.06C28.5374 165.81 28.1156 166.827 28.1152 167.889C28.1148 168.95 28.536 169.967 29.286 170.718C30.036 171.469 31.0535 171.89 32.1146 171.891C33.1757 171.891 34.1934 171.47 34.944 170.72L46.244 159.42C48.0847 159.212 49.9356 159.108 51.788 159.108C60.7598 159.095 69.5754 161.456 77.3402 165.95C85.105 170.445 91.5427 176.914 96 184.7V196C96 197.061 96.4214 198.078 97.1716 198.828C97.9217 199.579 98.9391 200 100 200C101.061 200 102.078 199.579 102.828 198.828C103.579 198.078 104 197.061 104 196V184.7C108.456 176.912 114.894 170.442 122.658 165.946C130.423 161.45 139.239 159.088 148.212 159.1C150.064 159.1 151.915 159.204 153.756 159.412L165.056 170.712C165.423 171.103 165.864 171.416 166.354 171.633C166.844 171.85 167.373 171.967 167.909 171.975C168.445 171.984 168.977 171.885 169.474 171.684C169.971 171.483 170.422 171.184 170.801 170.805C171.18 170.426 171.479 169.975 171.681 169.479C171.882 168.982 171.982 168.45 171.973 167.914C171.965 167.378 171.849 166.849 171.632 166.359C171.416 165.869 171.103 165.427 170.712 165.06L159.416 153.764C159.205 151.925 159.098 150.075 159.096 148.224C159.085 139.252 161.447 130.436 165.943 122.671C170.439 114.906 176.909 108.469 184.696 104.012H196C197.061 104.012 198.078 103.591 198.828 102.84C199.579 102.09 200 101.073 200 100.012C200 98.9511 199.579 97.9337 198.828 97.1836C198.078 96.4334 197.061 96.012 196 96.012V96ZM171.032 96H160C154.764 92.9527 150.42 88.5844 147.401 83.3317C144.383 78.0791 142.796 72.1261 142.8 66.068C142.8 64.868 142.872 63.768 142.972 62.708L151.216 54.468C151.563 62.3662 153.496 70.1137 156.901 77.249C160.305 84.3842 165.111 90.7612 171.032 96ZM104 90.34V73.54C107.392 76.1455 111.328 77.9505 115.516 78.82L104 90.34ZM121.172 84.484C122.042 88.6716 123.847 92.6084 126.452 96H109.652L121.172 84.484ZM96 90.34L84.484 78.824C88.6716 77.9545 92.6084 76.1495 96 73.544V90.34ZM90.344 96H73.544C76.1495 92.6084 77.9545 88.6716 78.824 84.484L90.344 96ZM90.344 104L78.832 115.512C77.9632 111.325 76.1581 107.39 73.552 104H90.344ZM96 109.652V126.452C92.6077 123.847 88.6713 122.041 84.484 121.168L96 109.652ZM104 109.652L115.516 121.168C111.329 122.041 107.392 123.847 104 126.452V109.652ZM109.66 104H126.46C123.854 107.39 122.049 111.325 121.18 115.512L109.66 104ZM138.308 96C135.312 94.1825 132.834 91.6238 131.114 88.5705C129.394 85.5173 128.49 82.0724 128.488 78.568C128.488 78.064 128.552 77.568 128.584 77.068L135.08 70.576C136.08 80.1627 140.303 89.1262 147.06 96H138.308ZM122.928 71.412C122.428 71.444 121.932 71.508 121.424 71.508C117.92 71.5076 114.475 70.6032 111.423 68.8822C108.371 67.1613 105.814 64.682 104 61.684V52.94C110.874 59.6944 119.835 63.9178 129.42 64.92L122.928 71.412ZM96 61.684C94.1861 64.682 91.6293 67.1613 88.577 68.8822C85.5247 70.6032 82.08 71.5076 78.576 71.508C78.068 71.508 77.572 71.444 77.072 71.412L70.58 64.92C80.1647 63.9178 89.1262 59.6944 96 52.94V61.684ZM71.416 77.06C71.448 77.56 71.512 78.056 71.512 78.56C71.5103 82.0644 70.6058 85.5093 68.8858 88.5625C67.1658 91.6158 64.6883 94.1745 61.692 95.992H52.94C59.7041 89.1211 63.935 80.1572 64.94 70.568L71.416 77.06ZM61.688 103.992C64.6865 105.805 67.1662 108.362 68.8873 111.414C70.6083 114.467 71.5124 117.912 71.512 121.416C71.512 121.92 71.448 122.416 71.416 122.916L64.92 129.42C63.9151 119.832 59.6841 110.869 52.92 104L61.688 103.992ZM77.072 128.576C77.572 128.54 78.068 128.48 78.576 128.48C82.0808 128.481 85.526 129.387 88.5784 131.109C91.6307 132.832 94.187 135.313 96 138.312V147.06C89.128 140.297 80.1647 136.067 70.576 135.06L77.072 128.576ZM104 138.312C105.814 135.314 108.371 132.835 111.423 131.114C114.475 129.393 117.92 128.488 121.424 128.488C121.932 128.488 122.428 128.548 122.928 128.584L129.424 135.06C119.835 136.067 110.872 140.297 104 147.06V138.312ZM128.584 122.924C128.552 122.424 128.488 121.928 128.488 121.424C128.488 117.92 129.392 114.475 131.113 111.422C132.834 108.37 135.313 105.813 138.312 104H147.06C140.303 110.872 136.079 119.835 135.08 129.42L128.584 122.924ZM145.536 48.808L137.288 57.06C136.232 57.164 135.124 57.232 133.924 57.232C127.864 57.2338 121.911 55.6437 116.659 52.6209C111.407 49.5981 107.042 45.2486 104 40.008V28.968C109.237 34.8938 115.614 39.7044 122.75 43.113C129.886 46.5216 137.635 48.4584 145.536 48.808ZM96 28.968V40.008C92.9549 45.2441 88.5882 49.5888 83.3368 52.6073C78.0853 55.6258 72.1332 57.2123 66.076 57.208C64.876 57.208 63.768 57.14 62.712 57.036L54.464 48.792C62.3635 48.4444 70.1121 46.5101 77.2481 43.1043C84.3842 39.6985 90.7615 34.8909 96 28.968ZM48.8 54.468L57.044 62.708C57.144 63.768 57.216 64.876 57.216 66.068C57.218 72.1277 55.6289 78.0817 52.6077 83.3345C49.5864 88.5873 45.2389 92.9547 40 96H28.96C34.8853 90.7633 39.6956 84.3873 43.1042 77.2519C46.5128 70.1166 48.4499 62.368 48.8 54.468ZM28.96 104H40C45.2399 107.043 49.5885 111.408 52.6106 116.66C55.6327 121.911 57.2222 127.865 57.22 133.924C57.22 135.124 57.148 136.228 57.048 137.284L48.8 145.528C48.4525 137.629 46.5177 129.881 43.1111 122.747C39.7045 115.612 34.8959 109.236 28.972 104H28.96ZM54.452 151.2L62.7 142.952C63.744 142.852 64.836 142.784 66.064 142.784C72.1237 142.778 78.0787 144.364 83.3325 147.383C88.5864 150.402 92.9547 154.749 96 159.988V171.024C90.7622 165.099 84.3853 160.29 77.2493 156.882C70.1133 153.474 62.3643 151.538 54.464 151.188L54.452 151.2ZM104 171.024V159.988C107.045 154.752 111.411 150.407 116.663 147.388C121.914 144.37 127.867 142.783 133.924 142.788C135.152 142.788 136.244 142.856 137.288 142.956L145.536 151.204C137.637 151.552 129.889 153.485 122.753 156.891C115.617 160.296 109.239 165.102 104 171.024ZM151.2 145.528L142.956 137.284C142.856 136.228 142.784 135.12 142.784 133.924C142.781 127.865 144.37 121.912 147.392 116.66C150.413 111.409 154.761 107.043 160 104H171.036C165.111 109.236 160.301 115.611 156.893 122.746C153.485 129.881 151.549 137.629 151.2 145.528Z" fill="url(#paint0_radial_9_721)" fill-opacity="0.2"/>
<defs>
<radialGradient id="paint0_radial_9_721" cx="0" cy="0" r="1" gradientUnits="userSpaceOnUse" gradientTransform="translate(100 100) rotate(90) scale(80.1255)">
<stop/>
<stop offset="1" stop-opacity="0"/>
</radialGradient>
</defs>
</svg>
