<svg width="32" height="16" viewBox="0 0 253 123" fill="none" xmlns="http://www.w3.org/2000/svg">
<mask id="path-1-inside-1_1_608" fill="white">
<path fill-rule="evenodd" clip-rule="evenodd" d="M69.5851 11H39.1866L0.499329 62.5183C19.7083 67.7945 33.8209 85.3831 33.8209 106.268C33.8209 109.576 33.4668 112.801 32.7944 115.908H37.4942C44.7202 100.438 60.418 89.7192 78.6194 89.7192C96.8208 89.7192 112.519 100.438 119.745 115.908H128.226C135.452 100.438 151.149 89.7192 169.351 89.7192C187.552 89.7192 203.25 100.438 210.476 115.908H215.176C214.504 112.801 214.15 109.576 214.15 106.268C214.15 83.7169 230.604 65.009 252.162 61.4952L208.784 11H178.415C167.886 30.0695 147.465 43 124 43C100.535 43 80.1144 30.0695 69.5851 11Z"/>
</mask>
<path fill-rule="evenodd" clip-rule="evenodd" d="M69.5851 11H39.1866L0.499329 62.5183C19.7083 67.7945 33.8209 85.3831 33.8209 106.268C33.8209 109.576 33.4668 112.801 32.7944 115.908H37.4942C44.7202 100.438 60.418 89.7192 78.6194 89.7192C96.8208 89.7192 112.519 100.438 119.745 115.908H128.226C135.452 100.438 151.149 89.7192 169.351 89.7192C187.552 89.7192 203.25 100.438 210.476 115.908H215.176C214.504 112.801 214.15 109.576 214.15 106.268C214.15 83.7169 230.604 65.009 252.162 61.4952L208.784 11H178.415C167.886 30.0695 147.465 43 124 43C100.535 43 80.1144 30.0695 69.5851 11Z" fill="#FF9838"/>
<path d="M39.1866 11V3H35.1896L32.7895 6.19614L39.1866 11ZM69.5851 11L76.5885 7.13308L74.3064 3H69.5851V11ZM0.499329 62.5183L-5.89778 57.7144L-12.9592 67.1178L-1.61961 70.2325L0.499329 62.5183ZM32.7944 115.908L24.9754 114.216L22.878 123.908H32.7944V115.908ZM37.4942 115.908V123.908H42.5871L44.7425 119.294L37.4942 115.908ZM119.745 115.908L112.496 119.294L114.652 123.908H119.745V115.908ZM128.226 115.908V123.908H133.319L135.474 119.294L128.226 115.908ZM210.476 115.908L203.228 119.294L205.383 123.908H210.476V115.908ZM215.176 115.908V123.908H225.092L222.995 114.216L215.176 115.908ZM252.162 61.4952L253.449 69.391L267.521 67.0974L258.23 56.2822L252.162 61.4952ZM208.784 11L214.852 5.787L212.458 3H208.784V11ZM178.415 11V3H173.694L171.412 7.13308L178.415 11ZM39.1866 19H69.5851V3H39.1866V19ZM6.89643 67.3221L45.5837 15.8039L32.7895 6.19614L-5.89778 57.7144L6.89643 67.3221ZM-1.61961 70.2325C14.2054 74.5793 25.8209 89.0774 25.8209 106.268H41.8209C41.8209 81.6888 25.2112 61.0097 2.61826 54.804L-1.61961 70.2325ZM25.8209 106.268C25.8209 109.004 25.5282 111.662 24.9754 114.216L40.6134 117.6C41.4054 113.941 41.8209 110.148 41.8209 106.268H25.8209ZM37.4942 107.908H32.7944V123.908H37.4942V107.908ZM78.6194 81.7192C57.1961 81.7192 38.7377 94.3429 30.2459 112.523L44.7425 119.294C50.7027 106.534 63.6398 97.7192 78.6194 97.7192V81.7192ZM126.993 112.523C118.501 94.3429 100.043 81.7192 78.6194 81.7192V97.7192C93.5989 97.7192 106.536 106.534 112.496 119.294L126.993 112.523ZM128.226 107.908H119.745V123.908H128.226V107.908ZM169.351 81.7192C147.928 81.7192 129.469 94.3429 120.977 112.523L135.474 119.294C141.434 106.534 154.371 97.7192 169.351 97.7192V81.7192ZM217.724 112.523C209.233 94.3429 190.774 81.7192 169.351 81.7192V97.7192C184.33 97.7192 197.268 106.534 203.228 119.294L217.724 112.523ZM215.176 107.908H210.476V123.908H215.176V107.908ZM206.15 106.268C206.15 110.148 206.565 113.941 207.357 117.6L222.995 114.216C222.442 111.662 222.15 109.004 222.15 106.268H206.15ZM250.875 53.5994C225.509 57.7339 206.15 79.7324 206.15 106.268H222.15C222.15 87.7014 235.699 72.2841 253.449 69.391L250.875 53.5994ZM202.716 16.213L246.093 66.7082L258.23 56.2822L214.852 5.787L202.716 16.213ZM178.415 19H208.784V3H178.415V19ZM124 51C150.471 51 173.527 36.4039 185.418 14.8669L171.412 7.13308C162.245 23.7351 144.459 35 124 35V51ZM62.5818 14.8669C74.4735 36.4039 97.5291 51 124 51V35C103.541 35 85.7553 23.7351 76.5885 7.13308L62.5818 14.8669Z" fill="black" mask="url(#path-1-inside-1_1_608)"/>
<path d="M67.4999 14.0001L37.4999 102" stroke="black" stroke-width="8"/>
<path d="M182.5 15.5001L209.5 99.0001" stroke="black" stroke-width="8"/>
<path fill-rule="evenodd" clip-rule="evenodd" d="M101.939 6.98663C101.408 5.6916 100.195 4.76221 98.795 4.76221C97.0477 4.76221 95.6313 6.17862 95.6313 7.92584V82.0847C95.6313 85.6466 97.5297 88.9303 100.525 90.8572C104.249 93.2519 109.246 96.6925 112.36 99.7467C116.528 103.835 120.143 111.929 122.192 117.186C122.793 118.725 125.183 118.726 125.783 117.186C127.893 111.771 131.646 103.322 135.893 99.1796C138.895 96.252 143.627 93.0826 147.246 90.8404C150.347 88.919 152.338 85.5713 152.338 81.9232V7.92584C152.338 6.17861 150.922 4.76221 149.175 4.76221C147.775 4.76221 146.562 5.6916 146.031 6.98663C142.473 15.6632 133.943 21.7743 123.985 21.7743C114.027 21.7743 105.496 15.6632 101.939 6.98663Z" fill="#FF9838"/>
<path d="M112.36 99.7467L109.559 102.602L109.559 102.602L112.36 99.7467ZM122.192 117.186L118.466 118.639L118.466 118.639L122.192 117.186ZM125.783 117.186L122.056 115.734H122.056L125.783 117.186ZM135.893 99.1796L138.686 102.043L135.893 99.1796ZM146.031 6.98663L149.732 8.50405L146.031 6.98663ZM147.246 90.8404L145.139 87.4402L147.246 90.8404ZM100.525 90.8572L98.3616 94.2214L100.525 90.8572ZM99.6313 82.0847V7.92584H91.6313V82.0847H99.6313ZM115.161 96.8912C111.726 93.5221 106.417 89.8906 102.689 87.4929L98.3616 94.2214C102.08 96.6132 106.766 99.863 109.559 102.602L115.161 96.8912ZM125.919 115.733C124.863 113.024 123.386 109.536 121.61 106.164C119.867 102.855 117.691 99.3726 115.161 96.8911L109.559 102.602C111.197 104.209 112.913 106.818 114.531 109.892C116.117 112.903 117.472 116.09 118.466 118.639L125.919 115.733ZM122.056 115.734C122.479 114.648 123.458 114.34 123.988 114.34C124.518 114.34 125.496 114.648 125.919 115.733L118.466 118.639C119.489 121.262 121.962 122.34 123.987 122.34C126.013 122.341 128.487 121.263 129.51 118.638L122.056 115.734ZM133.101 96.316C130.518 98.8345 128.284 102.433 126.494 105.849C124.667 109.335 123.141 112.949 122.056 115.734L129.51 118.638C130.535 116.008 131.94 112.691 133.58 109.562C135.255 106.365 137.021 103.667 138.686 102.043L133.101 96.316ZM145.139 87.4402C141.505 89.6915 136.443 93.0564 133.101 96.316L138.686 102.043C141.347 99.4477 145.748 96.4737 149.352 94.2407L145.139 87.4402ZM148.338 7.92584V81.9232H156.338V7.92584H148.338ZM142.33 5.46922C139.367 12.6961 132.264 17.7743 123.985 17.7743V25.7743C135.622 25.7743 145.58 18.6302 149.732 8.50405L142.33 5.46922ZM123.985 17.7743C115.706 17.7743 108.603 12.6961 105.64 5.46922L98.238 8.50404C102.39 18.6302 112.348 25.7743 123.985 25.7743V17.7743ZM149.175 0.762207C145.929 0.762207 143.387 2.88982 142.33 5.46922L149.732 8.50405C149.722 8.52727 149.697 8.57486 149.622 8.62913C149.538 8.69016 149.381 8.76221 149.175 8.76221V0.762207ZM156.338 7.92584C156.338 3.96947 153.131 0.762207 149.175 0.762207V8.76221C148.713 8.76221 148.338 8.38776 148.338 7.92584H156.338ZM149.352 94.2407C153.548 91.6414 156.338 87.0509 156.338 81.9232H148.338C148.338 84.0917 147.146 86.1967 145.139 87.4402L149.352 94.2407ZM91.6313 82.0847C91.6313 87.0881 94.291 91.6032 98.3616 94.2214L102.689 87.4929C100.768 86.2574 99.6313 84.2051 99.6313 82.0847H91.6313ZM98.795 8.76221C98.5891 8.76221 98.4318 8.69016 98.3475 8.62913C98.2725 8.57486 98.2475 8.52726 98.238 8.50404L105.64 5.46922C104.582 2.88982 102.04 0.762207 98.795 0.762207V8.76221ZM98.795 0.762207C94.8386 0.762207 91.6313 3.96948 91.6313 7.92584H99.6313C99.6313 8.38775 99.2569 8.76221 98.795 8.76221V0.762207Z" fill="black"/>
<mask id="path-7-outside-2_1_608" maskUnits="userSpaceOnUse" x="99.3335" y="29" width="49" height="26" fill="black">
<rect fill="white" x="99.3335" y="29" width="49" height="26"/>
<path fill-rule="evenodd" clip-rule="evenodd" d="M135.344 46.3125C137.915 46.3125 140 44.2278 140 41.6562C140 39.0847 137.915 37 135.344 37C132.772 37 130.688 39.0847 130.688 41.6562C130.688 44.2278 132.772 46.3125 135.344 46.3125ZM111.99 46.7783C114.561 46.7783 116.646 44.6936 116.646 42.1221C116.646 39.5505 114.561 37.4658 111.99 37.4658C109.418 37.4658 107.333 39.5505 107.333 42.1221C107.333 44.6936 109.418 46.7783 111.99 46.7783Z"/>
</mask>
<path fill-rule="evenodd" clip-rule="evenodd" d="M135.344 46.3125C137.915 46.3125 140 44.2278 140 41.6562C140 39.0847 137.915 37 135.344 37C132.772 37 130.688 39.0847 130.688 41.6562C130.688 44.2278 132.772 46.3125 135.344 46.3125ZM111.99 46.7783C114.561 46.7783 116.646 44.6936 116.646 42.1221C116.646 39.5505 114.561 37.4658 111.99 37.4658C109.418 37.4658 107.333 39.5505 107.333 42.1221C107.333 44.6936 109.418 46.7783 111.99 46.7783Z" fill="black"/>
<path d="M132 41.6562C132 39.8095 133.497 38.3125 135.344 38.3125V54.3125C142.334 54.3125 148 48.6461 148 41.6562H132ZM135.344 45C133.497 45 132 43.5029 132 41.6562H148C148 34.6664 142.334 29 135.344 29V45ZM138.688 41.6562C138.688 43.5029 137.19 45 135.344 45V29C128.354 29 122.688 34.6664 122.688 41.6562H138.688ZM135.344 38.3125C137.19 38.3125 138.688 39.8095 138.688 41.6562H122.688C122.688 48.6461 128.354 54.3125 135.344 54.3125V38.3125ZM108.646 42.1221C108.646 40.2754 110.143 38.7783 111.99 38.7783V54.7783C118.98 54.7783 124.646 49.1119 124.646 42.1221H108.646ZM111.99 45.4658C110.143 45.4658 108.646 43.9688 108.646 42.1221H124.646C124.646 35.1322 118.98 29.4658 111.99 29.4658V45.4658ZM115.333 42.1221C115.333 43.9688 113.836 45.4658 111.99 45.4658V29.4658C105 29.4658 99.3335 35.1322 99.3335 42.1221H115.333ZM111.99 38.7783C113.836 38.7783 115.333 40.2754 115.333 42.1221H99.3335C99.3335 49.1119 105 54.7783 111.99 54.7783V38.7783Z" fill="white" mask="url(#path-7-outside-2_1_608)"/>
<path d="M119.666 60.6582C119.666 60.6582 121.38 61.1238 123.856 61.1238C126.332 61.1238 128.047 60.6582 128.047 60.6582" stroke="black" stroke-width="8" stroke-linecap="round"/>
</svg>
