<svg width="50" height="50" viewBox="0 0 250 250" fill="none" xmlns="http://www.w3.org/2000/svg">
<ellipse cx="125" cy="216" rx="113" ry="21" fill="#FF5C00"/>
<mask id="path-2-inside-1_7_2431" fill="white">
<path fill-rule="evenodd" clip-rule="evenodd" d="M44.3057 76.0961C48.6796 34.5442 83.7185 3 125.5 3C167.281 3 202.32 34.5443 206.694 76.0962L218.664 189.811C218.817 190.756 218.919 191.718 218.968 192.694L219 193H218.981C218.994 193.332 219 193.665 219 194C219 208.359 207.359 220 193 220C188.426 220 184.129 218.819 180.395 216.746C175.167 223.012 167.299 227 158.5 227C148.002 227 138.829 221.324 133.884 212.872C129.224 217.29 122.928 220 116 220C107.915 220 100.693 216.31 95.9241 210.523C89.8567 220.407 78.9483 227 66.5 227C47.6131 227 32.271 211.823 32.0035 193H32L32.0031 192.97C32.001 192.814 32 192.657 32 192.5C32 189.851 32.2985 187.272 32.8637 184.794L44.3057 76.0961Z"/>
</mask>
<path fill-rule="evenodd" clip-rule="evenodd" d="M44.3057 76.0961C48.6796 34.5442 83.7185 3 125.5 3C167.281 3 202.32 34.5443 206.694 76.0962L218.664 189.811C218.817 190.756 218.919 191.718 218.968 192.694L219 193H218.981C218.994 193.332 219 193.665 219 194C219 208.359 207.359 220 193 220C188.426 220 184.129 218.819 180.395 216.746C175.167 223.012 167.299 227 158.5 227C148.002 227 138.829 221.324 133.884 212.872C129.224 217.29 122.928 220 116 220C107.915 220 100.693 216.31 95.9241 210.523C89.8567 220.407 78.9483 227 66.5 227C47.6131 227 32.271 211.823 32.0035 193H32L32.0031 192.97C32.001 192.814 32 192.657 32 192.5C32 189.851 32.2985 187.272 32.8637 184.794L44.3057 76.0961Z" fill="white"/>
<path d="M44.3057 76.0961L52.2617 76.9336L44.3057 76.0961ZM206.694 76.0962L214.65 75.2587L206.694 76.0962ZM218.664 189.811L210.708 190.649L210.732 190.87L210.767 191.09L218.664 189.811ZM218.968 192.694L210.978 193.089L210.988 193.31L211.012 193.531L218.968 192.694ZM219 193V201H227.886L226.956 192.163L219 193ZM218.981 193V185H210.673L210.987 193.302L218.981 193ZM180.395 216.746L184.279 209.752L178.492 206.538L174.252 211.621L180.395 216.746ZM133.884 212.872L140.789 208.832L135.697 200.13L128.38 207.066L133.884 212.872ZM95.9241 210.523L102.098 205.435L94.9701 196.784L89.106 206.338L95.9241 210.523ZM32.0035 193L40.0027 192.886L39.8907 185H32.0035V193ZM32 193L24.044 192.163L23.1137 201H32V193ZM32.0031 192.97L39.9592 193.808L40.0087 193.337L40.0024 192.863L32.0031 192.97ZM32.8637 184.794L40.6633 186.574L40.7697 186.108L40.8198 185.632L32.8637 184.794ZM125.5 -5C79.6245 -5 41.1521 29.6352 36.3496 75.2586L52.2617 76.9336C56.207 39.4533 87.8126 11 125.5 11V-5ZM214.65 75.2587C209.848 29.6352 171.376 -5 125.5 -5V11C163.187 11 194.793 39.4533 198.738 76.9336L214.65 75.2587ZM226.62 188.974L214.65 75.2587L198.738 76.9336L210.708 190.649L226.62 188.974ZM210.767 191.09C210.873 191.743 210.944 192.41 210.978 193.089L226.958 192.298C226.895 191.025 226.762 189.768 226.561 188.532L210.767 191.09ZM226.956 192.163L226.924 191.856L211.012 193.531L211.044 193.837L226.956 192.163ZM218.981 201H219V185H218.981V201ZM210.987 193.302C210.996 193.533 211 193.766 211 194H227C227 193.564 226.992 193.13 226.975 192.698L210.987 193.302ZM211 194C211 203.941 202.941 212 193 212V228C211.778 228 227 212.778 227 194H211ZM193 212C189.82 212 186.855 211.182 184.279 209.752L176.511 223.739C181.402 226.456 187.033 228 193 228V212ZM158.5 235C169.772 235 179.855 229.881 186.538 221.87L174.252 211.621C170.479 216.144 164.827 219 158.5 219V235ZM126.979 216.913C133.3 227.715 145.045 235 158.5 235V219C150.958 219 144.358 214.932 140.789 208.832L126.979 216.913ZM116 228C125.056 228 133.301 224.449 139.388 218.678L128.38 207.066C125.147 210.132 120.8 212 116 212V228ZM89.7499 215.61C95.9731 223.163 105.425 228 116 228V212C110.406 212 105.412 209.458 102.098 205.435L89.7499 215.61ZM66.5 235C81.844 235 95.2807 226.863 102.742 214.708L89.106 206.338C84.4328 213.951 76.0526 219 66.5 219V235ZM24.0044 193.114C24.3338 216.304 43.2329 235 66.5 235V219C51.9933 219 40.2081 207.342 40.0027 192.886L24.0044 193.114ZM32 201H32.0035V185H32V201ZM24.0471 192.133L24.044 192.163L39.956 193.837L39.9592 193.808L24.0471 192.133ZM24 192.5C24 192.693 24.0013 192.885 24.0039 193.077L40.0024 192.863C40.0008 192.742 40 192.621 40 192.5H24ZM25.0641 183.015C24.3667 186.072 24 189.248 24 192.5H40C40 190.454 40.2304 188.472 40.6633 186.574L25.0641 183.015ZM36.3496 75.2586L24.9077 183.957L40.8198 185.632L52.2617 76.9336L36.3496 75.2586Z" fill="#FF5C00" mask="url(#path-2-inside-1_7_2431)"/>
<path d="M95.5 205L101 180" stroke="#FF5C00" stroke-width="8" stroke-linecap="round"/>
<path d="M179.5 210L187 181" stroke="#FF5C00" stroke-width="8" stroke-linecap="round"/>
<g style="mix-blend-mode:darken">
<path d="M124.5 5C182 15 167.5 130.5 178 206.5C178 210.667 181.1 218.1 201.5 214.5C221.9 210.9 212 173 206.5 101.5C201 30 166.5 8 124.5 5Z" fill="#FFDBB9"/>
</g>
<path d="M116 113C116 113 119.682 114 125 114C130.318 114 134 113 134 113" stroke="#FF5C00" stroke-width="8" stroke-linecap="round"/>
<circle cx="83" cy="92.6665" r="21" fill="white" stroke="#FF5C00" stroke-width="8"/>
<circle cx="91.3335" cy="92.6665" r="10" fill="#FF5C00"/>
<circle cx="166.333" cy="92.6665" r="21" fill="white" stroke="#FF5C00" stroke-width="8"/>
<circle cx="158" cy="92.6665" r="10" fill="#FF5C00"/>
</svg>
